<?xml version="1.0" encoding="UTF-8" standalone="no"?>
<svg
   id="Ebene_1"
   version="1.1"
   viewBox="0 0 1298.0001 206"
   sodipodi:docname="IICQC_black_vertical.svg"
   width="1298"
   height="206"
   inkscape:version="1.4.2 (ebf0e940d0, 2025-05-08)"
   inkscape:export-filename="IICQC_black_vertical.png"
   inkscape:export-xdpi="200"
   inkscape:export-ydpi="200"
   xmlns:inkscape="http://www.inkscape.org/namespaces/inkscape"
   xmlns:sodipodi="http://sodipodi.sourceforge.net/DTD/sodipodi-0.dtd"
   xmlns="http://www.w3.org/2000/svg"
   xmlns:svg="http://www.w3.org/2000/svg">
  <sodipodi:namedview
     id="namedview1"
     pagecolor="#ffffff"
     bordercolor="#000000"
     borderopacity="0.25"
     inkscape:showpageshadow="2"
     inkscape:pageopacity="0.0"
     inkscape:pagecheckerboard="0"
     inkscape:deskcolor="#d1d1d1"
     inkscape:zoom="0.9089462"
     inkscape:cx="641.95219"
     inkscape:cy="136.9718"
     inkscape:window-width="2560"
     inkscape:window-height="1374"
     inkscape:window-x="0"
     inkscape:window-y="0"
     inkscape:window-maximized="1"
     inkscape:current-layer="Ebene_1" />
  <defs
     id="defs1">
    <style
       id="style1">
      .st0 {
        fill: #15698f;
      }
    </style>
  </defs>
  <path
     class="st0"
     d="m 541.46,204.91 c 59.57,0 97.28,-32.96 97.28,-100.13 V 0.02 h -48.8 v 106.66 c 0,35.17 -18.06,53.24 -47.85,53.24 -29.79,0 -47.85,-18.7 -47.85,-54.82 V 0.02 h -48.8 v 106.34 c 0,65.28 36.44,98.55 96.02,98.55 z M 101.08,122.52 c 0,25.67 -11.41,36.76 -29.79,36.76 -15.53,0 -27.89,-8.24 -40.56,-22.18 L 0,171.32 c 15.21,18.06 38.03,33.27 72.57,33.27 24.08,0 44.05,-6.97 57.67,-20.6 13.31,-13.31 20.91,-32.96 20.91,-59.26 V 0.02 H 101.08 Z M 409.21,0 298.3,95.02 187.39,0 v 58.62 l 110.91,95 110.91,-95 V 0 Z m 0,153.62 H 187.39 v 48.23 h 221.82 z"
     id="path1"
     style="fill:#000000;fill-opacity:1" />
  <g
     id="g13"
     style="fill:#000000;fill-opacity:1"
     transform="translate(482.47375,-240.30616)">
    <path
       class="st0"
       d="m 188.08,258.25 h 8.47 v 38.5 h -8.47 z"
       id="path2"
       style="fill:#000000;fill-opacity:1" />
    <path
       class="st0"
       d="m 204.91,267.27 h 8.36 v 4.18 c 1.92,-2.47 4.4,-4.73 8.63,-4.73 6.32,0 10.01,4.18 10.01,10.94 v 19.08 h -8.36 V 280.3 c 0,-3.96 -1.87,-5.99 -5.06,-5.99 -3.19,0 -5.22,2.03 -5.22,5.99 v 16.44 h -8.36 v -29.48 z"
       id="path3"
       style="fill:#000000;fill-opacity:1" />
    <path
       class="st0"
       d="m 236.48,292.85 3.57,-5.5 c 3.19,2.31 6.54,3.52 9.29,3.52 2.42,0 3.52,-0.88 3.52,-2.2 v -0.11 c 0,-1.82 -2.86,-2.42 -6.1,-3.41 -4.12,-1.21 -8.8,-3.13 -8.8,-8.85 v -0.11 c 0,-5.99 4.84,-9.35 10.78,-9.35 3.74,0 7.81,1.26 11,3.41 l -3.19,5.77 c -2.91,-1.7 -5.83,-2.75 -7.97,-2.75 -2.14,0 -3.08,0.88 -3.08,2.03 v 0.11 c 0,1.65 2.8,2.42 5.99,3.52 4.12,1.38 8.91,3.35 8.91,8.74 v 0.11 c 0,6.54 -4.89,9.51 -11.27,9.51 -4.12,0 -8.74,-1.38 -12.65,-4.45 z"
       id="path4"
       style="fill:#000000;fill-opacity:1" />
    <path
       class="st0"
       d="m 267.39,288.39 v -13.97 h -3.52 v -7.15 h 3.52 v -7.53 h 8.36 v 7.53 h 6.93 v 7.15 h -6.93 v 12.59 c 0,1.92 0.82,2.86 2.69,2.86 1.54,0 2.91,-0.38 4.12,-1.04 v 6.71 c -1.76,1.04 -3.79,1.71 -6.6,1.71 -5.11,0 -8.58,-2.04 -8.58,-8.85 z"
       id="path5"
       style="fill:#000000;fill-opacity:1" />
    <path
       class="st0"
       d="m 288.62,256.61 h 8.8 v 7.42 h -8.8 z m 0.22,10.66 h 8.36 v 29.48 h -8.36 z"
       id="path6"
       style="fill:#000000;fill-opacity:1" />
    <path
       class="st0"
       d="m 306.05,288.39 v -13.97 h -3.52 v -7.15 h 3.52 v -7.53 h 8.36 v 7.53 h 6.93 v 7.15 h -6.93 v 12.59 c 0,1.92 0.83,2.86 2.69,2.86 1.54,0 2.91,-0.38 4.12,-1.04 v 6.71 c -1.76,1.04 -3.79,1.71 -6.6,1.71 -5.11,0 -8.58,-2.04 -8.58,-8.85 z"
       id="path7"
       style="fill:#000000;fill-opacity:1" />
    <path
       class="st0"
       d="m 326.89,286.36 v -19.08 h 8.36 v 16.44 c 0,3.96 1.87,5.99 5.06,5.99 3.19,0 5.22,-2.03 5.22,-5.99 v -16.44 h 8.36 v 29.48 h -8.36 v -4.18 c -1.92,2.47 -4.4,4.73 -8.63,4.73 -6.32,0 -10.01,-4.18 -10.01,-10.94 z"
       id="path8"
       style="fill:#000000;fill-opacity:1" />
    <path
       class="st0"
       d="m 362.37,288.39 v -13.97 h -3.52 v -7.15 h 3.52 v -7.53 h 8.36 v 7.53 h 6.93 v 7.15 h -6.93 v 12.59 c 0,1.92 0.82,2.86 2.69,2.86 1.54,0 2.91,-0.38 4.12,-1.04 v 6.71 c -1.76,1.04 -3.79,1.71 -6.6,1.71 -5.11,0 -8.58,-2.04 -8.58,-8.85 z"
       id="path9"
       style="fill:#000000;fill-opacity:1" />
    <path
       class="st0"
       d="m 382,282.18 v -0.11 c 0,-8.41 5.99,-15.34 14.57,-15.34 9.84,0 14.35,7.64 14.35,16 0,0.66 -0.06,1.43 -0.11,2.2 H 390.3 c 0.82,3.79 3.46,5.77 7.2,5.77 2.8,0 4.84,-0.88 7.15,-3.02 l 4.78,4.23 c -2.75,3.41 -6.71,5.5 -12.04,5.5 -8.85,0 -15.4,-6.21 -15.4,-15.23 z m 20.79,-2.48 c -0.5,-3.74 -2.69,-6.27 -6.21,-6.27 -3.52,0 -5.72,2.47 -6.38,6.27 z"
       id="path10"
       style="fill:#000000;fill-opacity:1" />
    <path
       class="st0"
       d="m 434.31,274.42 h -3.46 v -6.87 h 3.46 v -1.87 c 0,-3.25 0.83,-5.61 2.37,-7.15 1.54,-1.54 3.79,-2.31 6.76,-2.31 2.64,0 4.4,0.33 5.94,0.83 v 6.93 c -1.21,-0.44 -2.36,-0.71 -3.79,-0.71 -1.92,0 -3.02,0.99 -3.02,3.19 v 1.16 h 6.76 v 6.82 h -6.65 v 22.33 h -8.36 v -22.33 z"
       id="path11"
       style="fill:#000000;fill-opacity:1" />
    <path
       class="st0"
       d="m 452.07,282.18 v -0.11 c 0,-8.47 6.82,-15.34 16,-15.34 9.18,0 15.89,6.76 15.89,15.23 v 0.11 c 0,8.47 -6.82,15.34 -16,15.34 -9.18,0 -15.89,-6.76 -15.89,-15.23 z m 23.65,0 v -0.11 c 0,-4.34 -3.13,-8.14 -7.75,-8.14 -4.62,0 -7.64,3.68 -7.64,8.03 v 0.11 c 0,4.34 3.13,8.14 7.75,8.14 4.62,0 7.64,-3.68 7.64,-8.03 z"
       id="path12"
       style="fill:#000000;fill-opacity:1" />
    <path
       class="st0"
       d="M 489.64,267.27 H 498 v 5.94 c 1.7,-4.07 4.45,-6.71 9.4,-6.49 v 8.74 h -0.44 c -5.55,0 -8.96,3.35 -8.96,10.39 v 10.89 h -8.36 v -29.48 z"
       id="path13"
       style="fill:#000000;fill-opacity:1" />
  </g>
  <g
     id="g19"
     style="fill:#000000;fill-opacity:1"
     transform="translate(482.47375,-240.30616)">
    <path
       class="st0"
       d="m 188.08,324.26 h 8.47 v 38.5 h -8.47 z"
       id="path14"
       style="fill:#000000;fill-opacity:1" />
    <path
       class="st0"
       d="m 204.74,333.28 h 8.36 v 4.18 c 1.92,-2.47 4.4,-4.73 8.63,-4.73 6.32,0 10.01,4.18 10.01,10.94 v 19.08 h -8.36 v -16.44 c 0,-3.96 -1.87,-6 -5.06,-6 -3.19,0 -5.22,2.04 -5.22,6 v 16.44 h -8.36 v -29.48 z"
       id="path15"
       style="fill:#000000;fill-opacity:1" />
    <path
       class="st0"
       d="m 239.83,354.4 v -13.97 h -3.52 v -7.15 h 3.52 v -7.53 h 8.36 v 7.53 h 6.93 v 7.15 h -6.93 v 12.59 c 0,1.92 0.83,2.86 2.69,2.86 1.54,0 2.91,-0.38 4.12,-1.04 v 6.71 c -1.76,1.04 -3.79,1.71 -6.6,1.71 -5.11,0 -8.58,-2.04 -8.58,-8.85 z"
       id="path16"
       style="fill:#000000;fill-opacity:1" />
    <path
       class="st0"
       d="m 259.3,348.18 v -0.11 c 0,-8.41 5.99,-15.34 14.57,-15.34 9.84,0 14.35,7.64 14.35,16 0,0.66 -0.06,1.43 -0.11,2.2 H 267.6 c 0.82,3.79 3.46,5.77 7.2,5.77 2.8,0 4.84,-0.88 7.15,-3.03 l 4.78,4.23 c -2.75,3.41 -6.71,5.5 -12.04,5.5 -8.85,0 -15.4,-6.21 -15.4,-15.23 z m 20.79,-2.47 c -0.49,-3.74 -2.69,-6.27 -6.21,-6.27 -3.52,0 -5.72,2.47 -6.38,6.27 z"
       id="path17"
       style="fill:#000000;fill-opacity:1" />
    <path
       class="st0"
       d="m 294.06,368.59 2.86,-6.27 c 3.02,1.7 6.05,2.69 9.95,2.69 5.72,0 8.41,-2.75 8.41,-8.03 v -1.43 c -2.48,2.97 -5.17,4.78 -9.62,4.78 -6.87,0 -13.09,-5 -13.09,-13.75 v -0.11 c 0,-8.8 6.32,-13.75 13.09,-13.75 4.56,0 7.26,1.92 9.51,4.4 v -3.85 h 8.36 v 22.82 c 0,5.28 -1.26,9.13 -3.74,11.6 -2.75,2.75 -6.98,3.96 -12.7,3.96 -4.78,0 -9.29,-1.1 -13.03,-3.08 z m 21.23,-22 v -0.11 c 0,-4.01 -3.13,-6.82 -7.2,-6.82 -4.07,0 -7.15,2.8 -7.15,6.82 v 0.11 c 0,4.07 3.08,6.82 7.15,6.82 4.07,0 7.2,-2.8 7.2,-6.82 z"
       id="path18"
       style="fill:#000000;fill-opacity:1" />
    <path
       class="st0"
       d="m 330.47,333.28 h 8.36 v 5.94 c 1.71,-4.07 4.45,-6.71 9.4,-6.49 v 8.74 h -0.44 c -5.55,0 -8.96,3.35 -8.96,10.39 v 10.89 h -8.36 v -29.48 z"
       id="path19"
       style="fill:#000000;fill-opacity:1" />
  </g>
  <g
     id="g23"
     style="fill:#000000;fill-opacity:1"
     transform="translate(482.47375,-240.30616)">
    <path
       class="st0"
       d="m 349.98,354.29 v -0.11 c 0,-6.43 4.89,-9.4 11.88,-9.4 2.97,0 5.11,0.5 7.2,1.21 v -0.5 c 0,-3.46 -2.14,-5.39 -6.32,-5.39 -3.19,0 -5.44,0.61 -8.14,1.59 l -2.09,-6.38 c 3.24,-1.43 6.43,-2.36 11.44,-2.36 4.56,0 7.86,1.21 9.95,3.3 2.2,2.2 3.19,5.44 3.19,9.4 v 17.1 h -8.08 v -3.19 c -2.03,2.25 -4.84,3.74 -8.91,3.74 -5.55,0 -10.12,-3.19 -10.12,-9.02 z m 19.19,-1.93 v -1.49 c -1.43,-0.66 -3.3,-1.1 -5.33,-1.1 -3.57,0 -5.77,1.43 -5.77,4.07 v 0.11 c 0,2.25 1.87,3.57 4.56,3.57 3.9,0 6.54,-2.14 6.54,-5.17 z"
       id="path20"
       style="fill:#000000;fill-opacity:1" />
    <path
       class="st0"
       d="m 385.02,354.4 v -13.97 h -3.52 v -7.15 h 3.52 v -7.53 h 8.36 v 7.53 h 6.93 v 7.15 h -6.93 v 12.59 c 0,1.92 0.83,2.86 2.69,2.86 1.54,0 2.91,-0.38 4.12,-1.04 v 6.71 c -1.76,1.04 -3.79,1.71 -6.6,1.71 -5.11,0 -8.58,-2.04 -8.58,-8.85 z"
       id="path21"
       style="fill:#000000;fill-opacity:1" />
    <path
       class="st0"
       d="m 404.38,348.18 v -0.11 c 0,-8.41 5.99,-15.34 14.57,-15.34 9.84,0 14.35,7.64 14.35,16 0,0.66 -0.06,1.43 -0.11,2.2 h -20.51 c 0.83,3.79 3.46,5.77 7.2,5.77 2.8,0 4.84,-0.88 7.15,-3.03 l 4.78,4.23 c -2.75,3.41 -6.71,5.5 -12.04,5.5 -8.85,0 -15.4,-6.21 -15.4,-15.23 z m 20.78,-2.47 c -0.5,-3.74 -2.69,-6.27 -6.21,-6.27 -3.52,0 -5.72,2.47 -6.38,6.27 z"
       id="path22"
       style="fill:#000000;fill-opacity:1" />
    <path
       class="st0"
       d="m 437.54,348.08 v -0.11 c 0,-9.84 6.43,-15.23 13.42,-15.23 4.45,0 7.2,2.04 9.18,4.4 v -14.52 h 8.36 v 40.14 h -8.36 v -4.23 c -2.03,2.75 -4.84,4.78 -9.18,4.78 -6.87,0 -13.42,-5.39 -13.42,-15.23 z m 22.71,0 v -0.11 c 0,-4.89 -3.25,-8.14 -7.15,-8.14 -3.9,0 -7.2,3.19 -7.2,8.14 v 0.11 c 0,4.89 3.3,8.14 7.2,8.14 3.9,0 7.15,-3.25 7.15,-8.14 z"
       id="path23"
       style="fill:#000000;fill-opacity:1" />
  </g>
  <g
     id="g25"
     style="fill:#000000;fill-opacity:1"
     transform="translate(482.47375,-240.30616)">
    <path
       class="st0"
       d="m 491.53,343.62 v -0.11 c 0,-10.94 8.25,-19.91 20.07,-19.91 7.26,0 11.6,2.42 15.18,5.94 l -5.39,6.21 c -2.97,-2.7 -5.99,-4.34 -9.84,-4.34 -6.49,0 -11.16,5.39 -11.16,11.99 v 0.11 c 0,6.6 4.56,12.1 11.16,12.1 4.4,0 7.09,-1.76 10.12,-4.51 l 5.39,5.44 c -3.96,4.23 -8.36,6.87 -15.78,6.87 -11.33,0 -19.74,-8.74 -19.74,-19.8 z"
       id="path24"
       style="fill:#000000;fill-opacity:1" />
    <path
       class="st0"
       d="m 531.79,322.61 h 8.8 v 7.42 h -8.8 z m 0.22,10.67 h 8.36 v 29.48 h -8.36 z"
       id="path25"
       style="fill:#000000;fill-opacity:1" />
  </g>
  <g
     id="g31"
     style="fill:#000000;fill-opacity:1"
     transform="translate(482.47375,-240.30616)">
    <path
       class="st0"
       d="m 547.67,333.28 h 8.36 v 5.94 c 1.7,-4.07 4.45,-6.71 9.4,-6.49 v 8.74 h -0.44 c -5.55,0 -8.96,3.35 -8.96,10.39 v 10.89 h -8.36 v -29.48 z"
       id="path26"
       style="fill:#000000;fill-opacity:1" />
    <path
       class="st0"
       d="m 568.63,348.18 v -0.11 c 0,-8.41 6.43,-15.34 15.45,-15.34 5.55,0 9.02,1.87 11.77,4.95 l -5.11,5.5 c -1.87,-1.98 -3.74,-3.25 -6.71,-3.25 -4.18,0 -7.15,3.68 -7.15,8.03 v 0.11 c 0,4.51 2.92,8.14 7.48,8.14 2.8,0 4.73,-1.21 6.76,-3.13 l 4.89,4.95 c -2.86,3.13 -6.16,5.39 -12.04,5.39 -8.85,0 -15.34,-6.82 -15.34,-15.23 z"
       id="path27"
       style="fill:#000000;fill-opacity:1" />
    <path
       class="st0"
       d="M 600.64,352.36 V 333.28 H 609 v 16.44 c 0,3.96 1.87,5.99 5.06,5.99 3.19,0 5.22,-2.04 5.22,-5.99 v -16.44 h 8.36 v 29.48 h -8.36 v -4.18 c -1.92,2.47 -4.4,4.73 -8.63,4.73 -6.32,0 -10.01,-4.18 -10.01,-10.94 z"
       id="path28"
       style="fill:#000000;fill-opacity:1" />
    <path
       class="st0"
       d="m 634.68,322.61 h 8.8 v 7.42 h -8.8 z m 0.22,10.67 h 8.36 v 29.48 h -8.36 z"
       id="path29"
       style="fill:#000000;fill-opacity:1" />
    <path
       class="st0"
       d="m 651.89,354.4 v -13.97 h -3.52 v -7.15 h 3.52 v -7.53 h 8.36 v 7.53 h 6.93 v 7.15 h -6.93 v 12.59 c 0,1.92 0.82,2.86 2.69,2.86 1.54,0 2.91,-0.38 4.12,-1.04 v 6.71 c -1.76,1.04 -3.79,1.71 -6.6,1.71 -5.11,0 -8.58,-2.04 -8.58,-8.85 z"
       id="path30"
       style="fill:#000000;fill-opacity:1" />
    <path
       class="st0"
       d="m 670.43,358.85 3.57,-5.5 c 3.19,2.31 6.54,3.52 9.29,3.52 2.42,0 3.52,-0.88 3.52,-2.2 v -0.11 c 0,-1.81 -2.86,-2.42 -6.1,-3.41 -4.12,-1.21 -8.8,-3.13 -8.8,-8.85 v -0.11 c 0,-5.99 4.84,-9.35 10.78,-9.35 3.74,0 7.81,1.26 11,3.41 l -3.19,5.77 c -2.91,-1.71 -5.83,-2.75 -7.97,-2.75 -2.14,0 -3.08,0.88 -3.08,2.03 v 0.11 c 0,1.65 2.8,2.42 5.99,3.52 4.12,1.38 8.91,3.35 8.91,8.74 v 0.11 c 0,6.54 -4.89,9.51 -11.27,9.51 -4.12,0 -8.74,-1.38 -12.65,-4.45 z"
       id="path31"
       style="fill:#000000;fill-opacity:1" />
  </g>
  <g
     id="g34"
     style="fill:#000000;fill-opacity:1"
     transform="translate(482.47375,-240.30616)">
    <path
       class="st0"
       d="m 714.57,354.29 v -0.11 c 0,-6.43 4.89,-9.4 11.88,-9.4 2.97,0 5.11,0.5 7.2,1.21 v -0.5 c 0,-3.46 -2.14,-5.39 -6.32,-5.39 -3.19,0 -5.44,0.61 -8.14,1.59 l -2.09,-6.38 c 3.24,-1.43 6.43,-2.36 11.44,-2.36 4.56,0 7.86,1.21 9.95,3.3 2.2,2.2 3.19,5.44 3.19,9.4 v 17.1 h -8.08 v -3.19 c -2.03,2.25 -4.84,3.74 -8.91,3.74 -5.55,0 -10.12,-3.19 -10.12,-9.02 z m 19.2,-1.93 v -1.49 c -1.43,-0.66 -3.3,-1.1 -5.33,-1.1 -3.57,0 -5.77,1.43 -5.77,4.07 v 0.11 c 0,2.25 1.87,3.57 4.56,3.57 3.9,0 6.54,-2.14 6.54,-5.17 z"
       id="path32"
       style="fill:#000000;fill-opacity:1" />
    <path
       class="st0"
       d="m 748.73,333.28 h 8.36 v 4.18 c 1.92,-2.47 4.4,-4.73 8.63,-4.73 6.32,0 10.01,4.18 10.01,10.94 v 19.08 h -8.36 v -16.44 c 0,-3.96 -1.87,-6 -5.06,-6 -3.19,0 -5.22,2.04 -5.22,6 v 16.44 h -8.36 v -29.48 z"
       id="path33"
       style="fill:#000000;fill-opacity:1" />
    <path
       class="st0"
       d="m 781.51,348.08 v -0.11 c 0,-9.84 6.43,-15.23 13.42,-15.23 4.45,0 7.2,2.04 9.18,4.4 v -14.52 h 8.36 v 40.14 h -8.36 v -4.23 c -2.03,2.75 -4.84,4.78 -9.18,4.78 -6.87,0 -13.42,-5.39 -13.42,-15.23 z m 22.71,0 v -0.11 c 0,-4.89 -3.25,-8.14 -7.15,-8.14 -3.9,0 -7.2,3.19 -7.2,8.14 v 0.11 c 0,4.89 3.3,8.14 7.2,8.14 3.9,0 7.15,-3.25 7.15,-8.14 z"
       id="path34"
       style="fill:#000000;fill-opacity:1" />
  </g>
  <g
     id="g38"
     style="fill:#000000;fill-opacity:1"
     transform="translate(482.47375,-240.30616)">
    <path
       class="st0"
       d="m 222.06,429.91 -4.23,-3.79 c -3.24,2.09 -7.15,3.3 -11.44,3.3 -11.88,0 -20.4,-8.85 -20.4,-19.8 v -0.11 c 0,-10.94 8.63,-19.91 20.51,-19.91 11.88,0 20.4,8.85 20.4,19.8 v 0.11 c 0,4.07 -1.26,7.86 -3.41,11.05 l 3.96,3.35 z m -10.5,-9.35 -6.27,-5.33 5.39,-6.05 6.32,5.72 c 0.66,-1.54 1.04,-3.35 1.04,-5.28 v -0.11 c 0,-6.6 -4.84,-12.1 -11.66,-12.1 -6.82,0 -11.55,5.39 -11.55,11.99 v 0.11 c 0,6.6 4.84,12.1 11.66,12.1 1.87,0 3.57,-0.33 5.06,-1.04 z"
       id="path35"
       style="fill:#000000;fill-opacity:1" />
    <path
       class="st0"
       d="m 233.29,418.36 v -19.08 h 8.36 v 16.44 c 0,3.96 1.87,5.99 5.06,5.99 3.19,0 5.22,-2.04 5.22,-5.99 v -16.44 h 8.36 v 29.48 h -8.36 v -4.18 c -1.92,2.47 -4.4,4.73 -8.63,4.73 -6.32,0 -10.01,-4.18 -10.01,-10.94 z"
       id="path36"
       style="fill:#000000;fill-opacity:1" />
    <path
       class="st0"
       d="m 265.96,420.28 v -0.11 c 0,-6.43 4.89,-9.4 11.88,-9.4 2.97,0 5.11,0.5 7.2,1.21 v -0.5 c 0,-3.46 -2.14,-5.39 -6.32,-5.39 -3.19,0 -5.44,0.61 -8.14,1.59 l -2.09,-6.38 c 3.24,-1.43 6.43,-2.36 11.44,-2.36 4.56,0 7.86,1.21 9.95,3.3 2.2,2.2 3.19,5.44 3.19,9.4 v 17.1 h -8.08 v -3.19 c -2.03,2.25 -4.84,3.74 -8.91,3.74 -5.55,0 -10.12,-3.19 -10.12,-9.02 z m 19.19,-1.92 v -1.49 c -1.43,-0.66 -3.3,-1.1 -5.33,-1.1 -3.57,0 -5.77,1.43 -5.77,4.07 v 0.11 c 0,2.25 1.87,3.57 4.56,3.57 3.9,0 6.54,-2.14 6.54,-5.17 z"
       id="path37"
       style="fill:#000000;fill-opacity:1" />
    <path
       class="st0"
       d="m 300.22,399.27 h 8.36 v 4.18 c 1.92,-2.47 4.4,-4.73 8.63,-4.73 6.32,0 10.01,4.18 10.01,10.94 v 19.08 h -8.36 V 412.3 c 0,-3.96 -1.87,-6 -5.06,-6 -3.19,0 -5.22,2.04 -5.22,6 v 16.44 h -8.36 v -29.48 z"
       id="path38"
       style="fill:#000000;fill-opacity:1" />
  </g>
  <g
     id="g41"
     style="fill:#000000;fill-opacity:1"
     transform="translate(482.47375,-240.30616)">
    <path
       class="st0"
       d="m 335.06,420.39 v -13.97 h -3.52 v -7.15 h 3.52 v -7.53 h 8.36 v 7.53 h 6.93 v 7.15 h -6.93 v 12.59 c 0,1.92 0.82,2.86 2.69,2.86 1.54,0 2.91,-0.38 4.12,-1.04 v 6.71 c -1.76,1.04 -3.79,1.71 -6.6,1.71 -5.11,0 -8.58,-2.04 -8.58,-8.85 z"
       id="path39"
       style="fill:#000000;fill-opacity:1" />
    <path
       class="st0"
       d="m 356.13,418.36 v -19.08 h 8.36 v 16.44 c 0,3.96 1.87,5.99 5.06,5.99 3.19,0 5.22,-2.04 5.22,-5.99 v -16.44 h 8.36 v 29.48 h -8.36 v -4.18 c -1.92,2.47 -4.4,4.73 -8.63,4.73 -6.32,0 -10.01,-4.18 -10.01,-10.94 z"
       id="path40"
       style="fill:#000000;fill-opacity:1" />
    <path
       class="st0"
       d="m 390.45,399.27 h 8.36 v 4.18 c 1.92,-2.47 4.45,-4.73 8.69,-4.73 3.85,0 6.76,1.71 8.3,4.67 2.58,-3.02 5.66,-4.67 9.68,-4.67 6.21,0 9.95,3.74 9.95,10.83 v 19.19 h -8.36 V 412.3 c 0,-3.96 -1.76,-6 -4.89,-6 -3.13,0 -5.06,2.04 -5.06,6 v 16.44 h -8.36 V 412.3 c 0,-3.96 -1.76,-6 -4.89,-6 -3.13,0 -5.06,2.04 -5.06,6 v 16.44 h -8.36 v -29.48 z"
       id="path41"
       style="fill:#000000;fill-opacity:1" />
  </g>
  <g
     id="g43"
     style="fill:#000000;fill-opacity:1"
     transform="translate(482.47375,-240.30616)">
    <path
       class="st0"
       d="m 458.16,409.61 v -0.11 c 0,-10.94 8.25,-19.91 20.07,-19.91 7.26,0 11.6,2.42 15.18,5.94 l -5.39,6.21 c -2.97,-2.7 -5.99,-4.34 -9.84,-4.34 -6.49,0 -11.16,5.39 -11.16,11.99 v 0.11 c 0,6.6 4.56,12.1 11.16,12.1 4.4,0 7.09,-1.76 10.12,-4.51 l 5.39,5.44 c -3.96,4.23 -8.36,6.87 -15.78,6.87 -11.33,0 -19.74,-8.74 -19.74,-19.8 z"
       id="path42"
       style="fill:#000000;fill-opacity:1" />
    <path
       class="st0"
       d="m 496.71,414.18 v -0.11 c 0,-8.47 6.82,-15.34 16,-15.34 9.18,0 15.89,6.76 15.89,15.23 v 0.11 c 0,8.47 -6.82,15.34 -16,15.34 -9.18,0 -15.89,-6.76 -15.89,-15.23 z m 23.65,0 v -0.11 c 0,-4.34 -3.13,-8.14 -7.75,-8.14 -4.62,0 -7.64,3.68 -7.64,8.03 v 0.11 c 0,4.34 3.13,8.14 7.75,8.14 4.62,0 7.64,-3.68 7.64,-8.03 z"
       id="path43"
       style="fill:#000000;fill-opacity:1" />
  </g>
  <g
     id="g49"
     style="fill:#000000;fill-opacity:1"
     transform="translate(482.47375,-240.30616)">
    <path
       class="st0"
       d="m 534.22,399.27 h 8.36 v 4.18 c 1.92,-2.47 4.45,-4.73 8.69,-4.73 3.85,0 6.76,1.71 8.3,4.67 2.58,-3.02 5.67,-4.67 9.68,-4.67 6.21,0 9.95,3.74 9.95,10.83 v 19.19 h -8.36 V 412.3 c 0,-3.96 -1.76,-6 -4.89,-6 -3.13,0 -5.06,2.04 -5.06,6 v 16.44 h -8.36 V 412.3 c 0,-3.96 -1.76,-6 -4.89,-6 -3.13,0 -5.06,2.04 -5.06,6 v 16.44 h -8.36 v -29.48 z"
       id="path44"
       style="fill:#000000;fill-opacity:1" />
    <path
       class="st0"
       d="m 586.19,399.27 h 8.36 v 4.24 c 2.03,-2.75 4.84,-4.79 9.18,-4.79 6.87,0 13.42,5.39 13.42,15.23 v 0.11 c 0,9.84 -6.43,15.23 -13.42,15.23 -4.45,0 -7.2,-2.03 -9.18,-4.4 v 12.65 h -8.36 v -38.28 z m 22.6,14.8 v -0.11 c 0,-4.89 -3.3,-8.14 -7.2,-8.14 -3.9,0 -7.15,3.24 -7.15,8.14 v 0.11 c 0,4.89 3.25,8.14 7.15,8.14 3.9,0 7.2,-3.19 7.2,-8.14 z"
       id="path45"
       style="fill:#000000;fill-opacity:1" />
    <path
       class="st0"
       d="m 622.82,418.36 v -19.08 h 8.36 v 16.44 c 0,3.96 1.87,5.99 5.06,5.99 3.19,0 5.22,-2.04 5.22,-5.99 v -16.44 h 8.36 v 29.48 h -8.36 v -4.18 c -1.92,2.47 -4.4,4.73 -8.63,4.73 -6.32,0 -10.01,-4.18 -10.01,-10.94 z"
       id="path46"
       style="fill:#000000;fill-opacity:1" />
    <path
       class="st0"
       d="m 658.41,420.39 v -13.97 h -3.52 v -7.15 h 3.52 v -7.53 h 8.36 v 7.53 h 6.93 v 7.15 h -6.93 v 12.59 c 0,1.92 0.82,2.86 2.69,2.86 1.54,0 2.91,-0.38 4.12,-1.04 v 6.71 c -1.76,1.04 -3.79,1.71 -6.6,1.71 -5.11,0 -8.58,-2.04 -8.58,-8.85 z"
       id="path47"
       style="fill:#000000;fill-opacity:1" />
    <path
       class="st0"
       d="m 679.75,388.61 h 8.8 v 7.42 h -8.8 z m 0.22,10.66 h 8.36 v 29.48 h -8.36 z"
       id="path48"
       style="fill:#000000;fill-opacity:1" />
    <path
       class="st0"
       d="m 695.92,399.27 h 8.36 v 4.18 c 1.92,-2.47 4.4,-4.73 8.63,-4.73 6.32,0 10.01,4.18 10.01,10.94 v 19.08 h -8.36 V 412.3 c 0,-3.96 -1.87,-6 -5.06,-6 -3.19,0 -5.22,2.04 -5.22,6 v 16.44 h -8.36 v -29.48 z"
       id="path49"
       style="fill:#000000;fill-opacity:1" />
  </g>
  <path
     class="st0"
     d="m 1212.0237,194.27384 2.86,-6.27 c 3.03,1.7 6.05,2.69 9.95,2.69 5.72,0 8.41,-2.75 8.41,-8.03 v -1.43 c -2.47,2.97 -5.17,4.78 -9.62,4.78 -6.87,0 -13.09,-5 -13.09,-13.75 v -0.11 c 0,-8.8 6.32,-13.75 13.09,-13.75 4.56,0 7.26,1.92 9.51,4.4 v -3.85 h 8.36 v 22.82 c 0,5.28 -1.27,9.13 -3.74,11.6 -2.75,2.75 -6.98,3.96 -12.7,3.96 -4.78,0 -9.29,-1.1 -13.03,-3.08 z m 21.23,-22 v -0.11 c 0,-4.01 -3.13,-6.82 -7.2,-6.82 -4.07,0 -7.15,2.8 -7.15,6.82 v 0.11 c 0,4.07 3.08,6.82 7.15,6.82 4.07,0 7.2,-2.8 7.2,-6.82 z"
     id="path50"
     style="fill:#000000;fill-opacity:1" />
</svg>
