<?xml version="1.0" encoding="UTF-8" standalone="no"?>
<svg
   width="754.314453pt"
   height="355.37738pt"
   viewBox="0 0 754.314453 355.37738"
   version="1.1"
   id="svg20"
   sodipodi:docname="JKU-Logo_en_black.svg"
   inkscape:version="1.2.2 (732a01da63, 2022-12-09)"
   xmlns:inkscape="http://www.inkscape.org/namespaces/inkscape"
   xmlns:sodipodi="http://sodipodi.sourceforge.net/DTD/sodipodi-0.dtd"
   xmlns="http://www.w3.org/2000/svg"
   xmlns:svg="http://www.w3.org/2000/svg">
  <sodipodi:namedview
     id="namedview22"
     pagecolor="#ffffff"
     bordercolor="#666666"
     borderopacity="1.0"
     inkscape:showpageshadow="2"
     inkscape:pageopacity="0.0"
     inkscape:pagecheckerboard="0"
     inkscape:deskcolor="#d1d1d1"
     inkscape:document-units="pt"
     showgrid="false"
     inkscape:zoom="1.337307"
     inkscape:cx="366.7819"
     inkscape:cy="237.41744"
     inkscape:window-width="2560"
     inkscape:window-height="1351"
     inkscape:window-x="-9"
     inkscape:window-y="-9"
     inkscape:window-maximized="1"
     inkscape:current-layer="svg20" />
  <defs
     id="defs8">
    <clipPath
       id="clip-0">
      <path
         clip-rule="nonzero"
         d="M 187 314 L 714 314 L 714 355.378906 L 187 355.378906 Z M 187 314 "
         id="path2" />
    </clipPath>
    <clipPath
       id="clip-1">
      <path
         clip-rule="nonzero"
         d="M 183 256 L 754.3125 256 L 754.3125 298 L 183 298 Z M 183 256 "
         id="path5" />
    </clipPath>
  </defs>
  <path
     fill-rule="nonzero"
     fill="rgb(0%, 0%, 0%)"
     fill-opacity="1"
     d="M 541.4375 204.898438 C 601.015625 204.898438 638.695313 171.957031 638.695313 104.757813 L 638.695313 0.0585938 L 589.914063 0.0585938 L 589.914063 106.679688 C 589.914063 141.839844 571.855469 159.898438 542.035156 159.898438 C 512.277344 159.898438 494.214844 141.238281 494.214844 105.121094 L 494.214844 0.0585938 L 445.4375 0.0585938 L 445.4375 106.378906 C 445.4375 171.660156 481.855469 204.898438 541.4375 204.898438 Z M 101.039063 122.519531 C 101.039063 148.199219 89.640625 159.296875 71.28125 159.296875 C 55.738281 159.296875 43.378906 151.078125 30.71875 137.097656 L 0 171.359375 C 15.179688 189.417969 37.980469 204.597656 72.539063 204.597656 C 96.597656 204.597656 116.578125 197.636719 130.199219 184.019531 C 143.519531 170.699219 151.140625 151.078125 151.140625 124.738281 L 151.140625 0.0585938 L 101.039063 0.0585938 Z M 409.195313 0 L 298.257813 95.039063 L 187.378906 0 L 187.378906 58.621094 L 298.257813 153.660156 L 409.195313 58.621094 Z M 409.195313 153.660156 L 187.378906 153.660156 L 187.378906 201.839844 L 409.195313 201.839844 Z M 409.195313 153.660156 "
     id="path10" />
  <g
     clip-path="url(#clip-0)"
     id="g14">
    <path
       fill-rule="nonzero"
       fill="rgb(0%, 0%, 0%)"
       fill-opacity="1"
       d="M 204.179688 355.378906 C 214.679688 355.378906 221.339844 349.558594 221.339844 337.675781 L 221.339844 315.539063 L 212.699219 315.539063 L 212.699219 337.976563 C 212.699219 344.21875 209.519531 347.398438 204.238281 347.398438 C 199.019531 347.398438 195.777344 344.097656 195.777344 337.738281 L 195.777344 315.539063 L 187.199219 315.539063 L 187.199219 337.917969 C 187.199219 349.496094 193.617188 355.378906 204.179688 355.378906 Z M 231.839844 354.71875 L 240.296875 354.71875 L 240.296875 329.816406 L 259.316406 354.71875 L 266.636719 354.71875 L 266.636719 315.539063 L 258.117188 315.539063 L 258.117188 339.65625 L 239.757813 315.539063 L 231.839844 315.539063 Z M 278.097656 354.71875 L 286.738281 354.71875 L 286.738281 315.539063 L 278.097656 315.539063 Z M 310.738281 355.015625 L 318.359375 355.015625 L 334.199219 315.539063 L 324.898438 315.539063 L 314.636719 343.136719 L 304.378906 315.539063 L 294.898438 315.539063 Z M 341.9375 354.71875 L 371.757813 354.71875 L 371.757813 347.039063 L 350.457031 347.039063 L 350.457031 338.816406 L 368.9375 338.816406 L 368.9375 331.136719 L 350.457031 331.136719 L 350.457031 323.21875 L 371.457031 323.21875 L 371.457031 315.539063 L 341.9375 315.539063 Z M 381.117188 354.71875 L 389.757813 354.71875 L 389.757813 342.175781 L 396.535156 342.175781 L 404.9375 354.71875 L 415.015625 354.71875 L 405.417969 340.738281 C 410.398438 338.878906 413.816406 334.917969 413.816406 328.558594 L 413.816406 328.496094 C 413.816406 324.777344 412.617188 321.71875 410.457031 319.496094 C 407.878906 316.917969 404.035156 315.539063 399.058594 315.539063 L 381.117188 315.539063 Z M 389.757813 334.558594 L 389.757813 323.335938 L 398.277344 323.335938 C 402.476563 323.335938 405.058594 325.199219 405.058594 328.917969 L 405.058594 329.039063 C 405.058594 332.335938 402.65625 334.558594 398.457031 334.558594 Z M 437.214844 355.316406 C 445.675781 355.316406 451.617188 350.9375 451.617188 343.136719 L 451.617188 343.015625 C 451.617188 336.175781 447.117188 333.359375 439.195313 331.257813 C 432.417969 329.515625 430.738281 328.675781 430.738281 326.097656 L 430.738281 326.039063 C 430.738281 324.117188 432.476563 322.617188 435.777344 322.617188 C 439.078125 322.617188 442.496094 324.058594 445.976563 326.457031 L 450.417969 319.976563 C 446.457031 316.796875 441.597656 314.996094 435.898438 314.996094 C 427.855469 314.996094 422.15625 319.675781 422.15625 326.816406 L 422.15625 326.878906 C 422.15625 334.675781 427.257813 336.898438 435.175781 338.878906 C 441.714844 340.558594 443.035156 341.699219 443.035156 343.859375 L 443.035156 343.976563 C 443.035156 346.257813 440.9375 347.699219 437.398438 347.699219 C 432.898438 347.699219 429.238281 345.835938 425.695313 342.898438 L 420.597656 349.015625 C 425.277344 353.21875 431.277344 355.316406 437.214844 355.316406 M 461.214844 354.71875 L 469.796875 354.71875 L 469.796875 315.539063 L 461.214844 315.539063 Z M 490.4375 354.71875 L 499.015625 354.71875 L 499.015625 323.519531 L 510.957031 323.519531 L 510.957031 315.539063 L 478.496094 315.539063 L 478.496094 323.519531 L 490.4375 323.519531 Z M 530.277344 354.71875 L 538.914063 354.71875 L 538.914063 339.117188 L 553.976563 315.539063 L 544.195313 315.539063 L 534.65625 331.257813 L 525.296875 315.539063 L 515.214844 315.539063 L 530.277344 339.296875 Z M 579.535156 354.71875 L 607.675781 354.71875 L 607.675781 346.917969 L 588.117188 346.917969 L 588.117188 315.539063 L 579.535156 315.539063 Z M 616.253906 354.71875 L 624.894531 354.71875 L 624.894531 315.539063 L 616.253906 315.539063 Z M 636.355469 354.71875 L 644.875 354.71875 L 644.875 329.816406 L 663.835938 354.71875 L 671.15625 354.71875 L 671.15625 315.539063 L 662.695313 315.539063 L 662.695313 339.65625 L 644.273438 315.539063 L 636.355469 315.539063 Z M 681.113281 354.71875 L 713.753906 354.71875 L 713.753906 347.15625 L 692.15625 347.15625 L 713.753906 322.078125 L 713.753906 315.539063 L 681.773438 315.539063 L 681.773438 323.097656 L 702.65625 323.097656 L 681.113281 348.175781 Z M 681.113281 354.71875 "
       id="path12" />
  </g>
  <g
     clip-path="url(#clip-1)"
     id="g18">
    <path
       fill-rule="nonzero"
       fill="rgb(0%, 0%, 0%)"
       fill-opacity="1"
       d="M 196.679688 297.296875 C 200.9375 297.296875 204.476563 296.039063 206.878906 293.636719 C 209.21875 291.296875 210.597656 287.816406 210.597656 283.199219 L 210.597656 257.519531 L 201.71875 257.519531 L 201.71875 282.777344 C 201.71875 287.335938 199.738281 289.316406 196.5 289.316406 C 193.738281 289.316406 191.578125 287.816406 189.296875 285.359375 L 183.898438 291.417969 C 186.539063 294.597656 190.617188 297.296875 196.679688 297.296875 Z M 238.4375 297.417969 C 250.5 297.417969 259.316406 288.296875 259.316406 277.136719 L 259.316406 277.019531 C 259.316406 265.859375 250.617188 256.859375 238.558594 256.859375 C 226.4375 256.859375 217.617188 265.976563 217.617188 277.136719 L 217.617188 277.257813 C 217.617188 288.417969 226.316406 297.417969 238.4375 297.417969 Z M 238.558594 289.4375 C 231.597656 289.4375 226.679688 283.859375 226.679688 277.136719 L 226.679688 277.019531 C 226.679688 270.296875 231.476563 264.839844 238.4375 264.839844 C 245.339844 264.839844 250.316406 270.417969 250.316406 277.136719 L 250.316406 277.257813 C 250.316406 283.976563 245.457031 289.4375 238.558594 289.4375 Z M 266.996094 296.757813 L 275.578125 296.757813 L 275.578125 280.976563 L 291.539063 280.976563 L 291.539063 296.757813 L 300.117188 296.757813 L 300.117188 257.519531 L 291.539063 257.519531 L 291.539063 273.058594 L 275.578125 273.058594 L 275.578125 257.519531 L 266.996094 257.519531 Z M 306.175781 296.757813 L 314.996094 296.757813 L 318.539063 287.9375 L 335.15625 287.9375 L 338.699219 296.757813 L 347.757813 296.757813 L 330.957031 257.277344 L 322.976563 257.277344 Z M 321.65625 280.316406 L 326.816406 267.597656 L 332.039063 280.316406 Z M 353.757813 296.757813 L 362.277344 296.757813 L 362.277344 271.796875 L 381.296875 296.757813 L 388.617188 296.757813 L 388.617188 257.519531 L 380.097656 257.519531 L 380.097656 281.699219 L 361.738281 257.519531 L 353.757813 257.519531 Z M 398.035156 296.757813 L 406.558594 296.757813 L 406.558594 271.796875 L 425.515625 296.757813 L 432.835938 296.757813 L 432.835938 257.519531 L 424.316406 257.519531 L 424.316406 281.699219 L 405.957031 257.519531 L 398.035156 257.519531 Z M 442.257813 296.757813 L 472.078125 296.757813 L 472.078125 289.078125 L 450.835938 289.078125 L 450.835938 280.859375 L 469.316406 280.859375 L 469.316406 273.179688 L 450.835938 273.179688 L 450.835938 265.199219 L 471.835938 265.199219 L 471.835938 257.519531 L 442.257813 257.519531 Z M 493.738281 297.296875 C 502.195313 297.296875 508.136719 292.917969 508.136719 285.117188 L 508.136719 285.058594 C 508.136719 278.21875 503.636719 275.339844 495.65625 273.296875 C 488.875 271.558594 487.195313 270.71875 487.195313 268.136719 L 487.195313 268.019531 C 487.195313 266.097656 488.9375 264.597656 492.238281 264.597656 C 495.597656 264.597656 498.957031 266.039063 502.4375 268.4375 L 506.9375 261.957031 C 502.976563 258.777344 498.117188 256.976563 492.355469 256.976563 C 484.375 256.976563 478.675781 261.65625 478.675781 268.796875 L 478.675781 268.917969 C 478.675781 276.71875 483.777344 278.878906 491.636719 280.917969 C 498.175781 282.597656 499.554688 283.679688 499.554688 285.898438 L 499.554688 285.957031 C 499.554688 288.296875 497.394531 289.679688 493.917969 289.679688 C 489.417969 289.679688 485.695313 287.816406 482.15625 284.9375 L 477.117188 290.996094 C 481.796875 295.199219 487.796875 297.296875 493.738281 297.296875 Z M 532.4375 296.757813 L 541.015625 296.757813 L 541.015625 284.757813 L 545.574219 280.078125 L 557.757813 296.757813 L 568.074219 296.757813 L 551.394531 274.199219 L 567.355469 257.519531 L 556.914063 257.519531 L 541.015625 274.679688 L 541.015625 257.519531 L 532.4375 257.519531 Z M 573.296875 296.757813 L 603.117188 296.757813 L 603.117188 289.078125 L 581.875 289.078125 L 581.875 280.859375 L 600.355469 280.859375 L 600.355469 273.179688 L 581.875 273.179688 L 581.875 265.199219 L 602.875 265.199219 L 602.875 257.519531 L 573.296875 257.519531 Z M 610.796875 296.757813 L 619.433594 296.757813 L 619.433594 284.996094 L 625.976563 284.996094 C 634.796875 284.996094 641.816406 280.257813 641.816406 271.199219 L 641.816406 271.078125 C 641.816406 263.097656 636.175781 257.519531 626.816406 257.519531 L 610.796875 257.519531 Z M 619.433594 277.316406 L 619.433594 265.316406 L 626.09375 265.316406 C 630.414063 265.316406 633.117188 267.417969 633.117188 271.257813 L 633.117188 271.378906 C 633.117188 274.738281 630.59375 277.316406 626.273438 277.316406 Z M 648.234375 296.757813 L 676.375 296.757813 L 676.375 288.898438 L 656.875 288.898438 L 656.875 257.519531 L 648.234375 257.519531 Z M 682.914063 296.757813 L 712.734375 296.757813 L 712.734375 289.078125 L 691.433594 289.078125 L 691.433594 280.859375 L 709.914063 280.859375 L 709.914063 273.179688 L 691.433594 273.179688 L 691.433594 265.199219 L 712.433594 265.199219 L 712.433594 257.519531 L 682.914063 257.519531 Z M 720.414063 296.757813 L 729.054688 296.757813 L 729.054688 284.21875 L 735.835938 284.21875 L 744.234375 296.757813 L 754.3125 296.757813 L 744.714844 282.71875 C 749.695313 280.917969 753.113281 276.898438 753.113281 270.597656 L 753.113281 270.476563 C 753.113281 266.757813 751.914063 263.699219 749.753906 261.539063 C 747.175781 258.957031 743.335938 257.519531 738.355469 257.519531 L 720.414063 257.519531 Z M 729.054688 276.597656 L 729.054688 265.316406 L 737.574219 265.316406 C 741.773438 265.316406 744.355469 267.238281 744.355469 270.898438 L 744.355469 271.019531 C 744.355469 274.316406 741.953125 276.597656 737.753906 276.597656 Z M 729.054688 276.597656 "
       id="path16" />
  </g>
</svg>
